<svg width="22" height="24" viewBox="0 0 22 24" fill="none" xmlns="http://www.w3.org/2000/svg">
<path d="M20.55 6.00005H21.22C20.1963 4.50694 18.8373 3.27416 17.2518 2.40034C15.6663 1.52653 13.8983 1.03593 12.0892 0.967811C10.2802 0.89969 8.48028 1.25593 6.83355 2.00804C5.18683 2.76015 3.73899 3.88723 2.60589 5.29913C1.47279 6.71102 0.685878 8.36852 0.308112 10.139C-0.0696543 11.9095 -0.0277851 13.7439 0.430369 15.4953C0.888524 17.2467 1.75024 18.8666 2.94659 20.2253C4.14293 21.584 5.64068 22.6439 7.32 23.32C6.99847 22.1401 6.83372 20.923 6.83 19.7C6.84058 16.0664 8.2901 12.5848 10.8614 10.0173C13.4327 7.44977 16.9163 6.00532 20.55 6.00005Z" fill="#D15187"/>
</svg>
