<svg width="20" height="16" viewBox="0 0 20 16" fill="none" xmlns="http://www.w3.org/2000/svg">
<g style="mix-blend-mode:multiply">
<path d="M17.85 15.63C18.827 14.2013 19.3956 12.5331 19.4945 10.8051C19.5933 9.07706 19.2187 7.35483 18.411 5.82401C17.6034 4.29319 16.3932 3.01182 14.911 2.11801C13.4288 1.22419 11.7308 0.751831 9.99999 0.751831C8.26916 0.751831 6.57115 1.22419 5.08896 2.11801C3.60678 3.01182 2.39663 4.29319 1.58894 5.82401C0.78125 7.35483 0.406652 9.07706 0.505521 10.8051C0.604389 12.5331 1.17297 14.2013 2.14999 15.63C4.44424 14.003 7.18737 13.129 9.99999 13.129C12.8126 13.129 15.5557 14.003 17.85 15.63V15.63Z" fill="#D15187"/>
</g>
</svg>
