<svg width="39" height="24" viewBox="0 0 39 24" fill="none" xmlns="http://www.w3.org/2000/svg">
<path d="M30 15.07L33.9 19C33.9994 19.1004 34.1178 19.1801 34.2483 19.2345C34.3787 19.2889 34.5186 19.3169 34.66 19.3169C34.8013 19.3169 34.9412 19.2889 35.0716 19.2345C35.2021 19.1801 35.3205 19.1004 35.42 19L38.18 16.24V2.00005C38.1813 1.78743 38.1193 1.57923 38.0018 1.40201C37.8843 1.2248 37.7167 1.0866 37.5204 1.00505C37.324 0.923499 37.1078 0.9023 36.8993 0.944155C36.6909 0.986011 36.4996 1.08902 36.35 1.24005L25.47 12.15C25.3705 12.2504 25.2521 12.3301 25.1216 12.3845C24.9912 12.4389 24.8513 12.4669 24.71 12.4669C24.5686 12.4669 24.4287 12.4389 24.2983 12.3845C24.1678 12.3301 24.0494 12.2504 23.95 12.15L17.62 5.82005C17.5205 5.71967 17.4021 5.63999 17.2716 5.58561C17.1412 5.53124 17.0013 5.50324 16.86 5.50324C16.7186 5.50324 16.5787 5.53124 16.4483 5.58561C16.3178 5.63999 16.1994 5.71967 16.1 5.82005L0.359954 21.69C0.21236 21.8402 0.112358 22.0306 0.0724721 22.2374C0.0325867 22.4441 0.0545913 22.6581 0.13573 22.8524C0.216869 23.0467 0.353535 23.2127 0.52861 23.3297C0.703686 23.4467 0.909388 23.5094 1.11995 23.51H20.12L28.49 15.07C28.6905 14.8704 28.962 14.7583 29.245 14.7583C29.5279 14.7583 29.7994 14.8704 30 15.07V15.07Z" fill="#6F00FF"/>
</svg>
